<svg xmlns="http://www.w3.org/2000/svg" viewBox="0 0 472.34 242.11"><title>logo-txt-black</title><g id="Capa_2" data-name="Capa 2"><g id="Capa_2-2" data-name="Capa 2"><path d="M290.2,59.75a5.11,5.11,0,0,0,2.59.7q2.73,0,2.73-3.54V19.57H306V57.12a16.6,16.6,0,0,1-1,6.07,11,11,0,0,1-2.62,4,9.73,9.73,0,0,1-3.75,2.23,14.63,14.63,0,0,1-4.41.67,22.53,22.53,0,0,1-3.71-.28,15.66,15.66,0,0,1-3-.84Zm10.57-43.4a6.35,6.35,0,0,1-2.59-.53,6.65,6.65,0,0,1-3.46-3.46,6.35,6.35,0,0,1-.53-2.59,6.45,6.45,0,0,1,.53-2.56,6.66,6.66,0,0,1,1.4-2.1,6.76,6.76,0,0,1,2.06-1.4,6.34,6.34,0,0,1,2.59-.52,6.44,6.44,0,0,1,2.56.52,6.83,6.83,0,0,1,2.1,1.4,6.83,6.83,0,0,1,1.4,2.1,6.44,6.44,0,0,1,.52,2.56,6.34,6.34,0,0,1-.52,2.59,6.76,6.76,0,0,1-1.4,2.06,6.66,6.66,0,0,1-2.1,1.4A6.45,6.45,0,0,1,300.77,16.35Z"/><path d="M338.08,49.53h-.7Q333.89,55,326.88,55q-6.44,0-9.59-4.13T314.14,40V19.57h10.5V38.82A7.43,7.43,0,0,0,326,43.4a4.82,4.82,0,0,0,4.13,1.79,6.16,6.16,0,0,0,5.43-2.73,12.53,12.53,0,0,0,1.85-7.14V19.57h10.5v34.3h-9.8Z"/><path d="M376,50.79h-.7a15.57,15.57,0,0,1-3.81,3,11.29,11.29,0,0,1-5.5,1.19,13.91,13.91,0,0,1-4.86-.84,12.14,12.14,0,0,1-4-2.38,11.13,11.13,0,0,1-2.7-3.71,11.68,11.68,0,0,1-1-4.83,10.59,10.59,0,0,1,1-4.73,11.39,11.39,0,0,1,2.87-3.67,13.06,13.06,0,0,1,4.31-2.38,16.79,16.79,0,0,1,5.42-.84,26.93,26.93,0,0,1,5.22.42A29.22,29.22,0,0,1,376,33V32.1a4.86,4.86,0,0,0-1.85-3.82,7.5,7.5,0,0,0-5-1.57,10.17,10.17,0,0,0-7.84,3.71l-7.14-5a18.9,18.9,0,0,1,6.83-5.22,21.05,21.05,0,0,1,8.57-1.71q8.4,0,12.67,3.74t4.27,11.38v20.3H376Zm0-10.43a21,21,0,0,0-3.18-1,15.22,15.22,0,0,0-3.26-.35,6.51,6.51,0,0,0-4.2,1.15,3.71,3.71,0,0,0-1.4,3,3.57,3.57,0,0,0,1.33,2.9,5.35,5.35,0,0,0,3.5,1.09,7.68,7.68,0,0,0,3.12-.6A6.58,6.58,0,0,0,374.13,45a6.71,6.71,0,0,0,1.37-2.21A6.93,6.93,0,0,0,376,40.36Z"/><path d="M403.53,23.91h.7q3.5-5.46,10.5-5.46,6.43,0,9.59,4.13t3.15,10.85V53.87H417V34.62A7.46,7.46,0,0,0,415.64,30a4.81,4.81,0,0,0-4.13-1.78A6.13,6.13,0,0,0,406.09,31a12.45,12.45,0,0,0-1.86,7.14V53.87h-10.5V19.57h9.8Z"/><path d="M320.16,135.09h-.7a9.77,9.77,0,0,1-3.67,3.46,12.38,12.38,0,0,1-6.27,1.44,15.55,15.55,0,0,1-6.3-1.33,16.11,16.11,0,0,1-5.28-3.75,17.94,17.94,0,0,1-3.61-5.77,21.36,21.36,0,0,1,0-14.84,18,18,0,0,1,3.61-5.78,15.94,15.94,0,0,1,5.28-3.74,15.39,15.39,0,0,1,6.3-1.33,12.48,12.48,0,0,1,6.27,1.43,9.79,9.79,0,0,1,3.67,3.47h.7l-.7-4.9V88.75H330v50.12h-9.8Zm-8.33-4.9a8.57,8.57,0,0,0,3.19-.6,8.12,8.12,0,0,0,2.66-1.68,7.77,7.77,0,0,0,1.82-2.66,9,9,0,0,0,.66-3.53,8.77,8.77,0,0,0-.66-3.5,8.28,8.28,0,0,0-1.82-2.66,8.06,8.06,0,0,0-2.66-1.72,8.77,8.77,0,0,0-3.19-.59,8.68,8.68,0,0,0-3.18.59,8,8,0,0,0-2.66,1.72,8.12,8.12,0,0,0-1.82,2.66,8.6,8.6,0,0,0-.67,3.5,8.85,8.85,0,0,0,.67,3.53,7.63,7.63,0,0,0,1.82,2.66,8,8,0,0,0,2.66,1.68A8.48,8.48,0,0,0,311.83,130.19Z"/><path d="M358,135.79h-.7a15.57,15.57,0,0,1-3.81,3A11.29,11.29,0,0,1,348,140a13.91,13.91,0,0,1-4.86-.84,12.14,12.14,0,0,1-4-2.38,11.13,11.13,0,0,1-2.7-3.71,11.68,11.68,0,0,1-1-4.83,10.59,10.59,0,0,1,1.05-4.73,11.39,11.39,0,0,1,2.87-3.67,13.06,13.06,0,0,1,4.31-2.38,16.79,16.79,0,0,1,5.42-.84,26.93,26.93,0,0,1,5.22.42,29.22,29.22,0,0,1,3.67,1v-.91a4.86,4.86,0,0,0-1.85-3.82,7.5,7.5,0,0,0-5-1.57,10.17,10.17,0,0,0-7.84,3.71l-7.14-5a18.9,18.9,0,0,1,6.83-5.22,21.05,21.05,0,0,1,8.57-1.71q8.4,0,12.67,3.74t4.27,11.38v20.3H358Zm0-10.43a21,21,0,0,0-3.18-1,15.22,15.22,0,0,0-3.26-.35,6.51,6.51,0,0,0-4.2,1.15,3.71,3.71,0,0,0-1.4,3,3.57,3.57,0,0,0,1.33,2.9,5.35,5.35,0,0,0,3.5,1.09,7.68,7.68,0,0,0,3.12-.6,6.58,6.58,0,0,0,2.27-1.57,6.71,6.71,0,0,0,1.37-2.21A6.93,6.93,0,0,0,358,125.36Z"/><path d="M371.47,104.57h12.18l7.7,19.46h.7l7.84-19.46h12l-15.12,34.3H386.45Z"/><path d="M421.94,101.35a6.38,6.38,0,0,1-2.59-.53,6.65,6.65,0,0,1-3.46-3.46,6.35,6.35,0,0,1-.53-2.59,6.45,6.45,0,0,1,.53-2.56,6.66,6.66,0,0,1,1.4-2.1,6.76,6.76,0,0,1,2.06-1.4,6.64,6.64,0,0,1,5.15,0,6.43,6.43,0,0,1,3.5,3.5,6.44,6.44,0,0,1,.52,2.56,6.34,6.34,0,0,1-.52,2.59,6.76,6.76,0,0,1-1.4,2.06,6.66,6.66,0,0,1-2.1,1.4A6.45,6.45,0,0,1,421.94,101.35Zm-5.25,37.52v-34.3h10.5v34.3Z"/><path d="M460.44,135.09h-.7a9.77,9.77,0,0,1-3.67,3.46A12.38,12.38,0,0,1,449.8,140a15.55,15.55,0,0,1-6.3-1.33,16.22,16.22,0,0,1-5.28-3.75,17.94,17.94,0,0,1-3.61-5.77,21.36,21.36,0,0,1,0-14.84,18,18,0,0,1,3.61-5.78,16,16,0,0,1,5.28-3.74,15.39,15.39,0,0,1,6.3-1.33,12.48,12.48,0,0,1,6.27,1.43,9.79,9.79,0,0,1,3.67,3.47h.7l-.7-4.9V88.75h10.5v50.12h-9.8Zm-8.33-4.9a8.57,8.57,0,0,0,3.19-.6,8.12,8.12,0,0,0,2.66-1.68,7.77,7.77,0,0,0,1.82-2.66,9,9,0,0,0,.66-3.53,8.77,8.77,0,0,0-.66-3.5,8.28,8.28,0,0,0-1.82-2.66,8.06,8.06,0,0,0-2.66-1.72,8.77,8.77,0,0,0-3.19-.59,8.68,8.68,0,0,0-3.18.59,8,8,0,0,0-2.66,1.72,8.12,8.12,0,0,0-1.82,2.66,8.6,8.6,0,0,0-.67,3.5,8.85,8.85,0,0,0,.67,3.53,7.63,7.63,0,0,0,1.82,2.66,8,8,0,0,0,2.66,1.68A8.48,8.48,0,0,0,452.11,130.19Z"/><path d="M304.48,193.35h.7a9.74,9.74,0,0,1,3.68-3.47,12.42,12.42,0,0,1,6.26-1.43,15.39,15.39,0,0,1,6.3,1.33,16.08,16.08,0,0,1,5.29,3.74,18.14,18.14,0,0,1,3.6,5.78,21.36,21.36,0,0,1,0,14.84,18.09,18.09,0,0,1-3.6,5.77,16.26,16.26,0,0,1-5.29,3.75,15.55,15.55,0,0,1-6.3,1.33,12.31,12.31,0,0,1-6.26-1.44,9.72,9.72,0,0,1-3.68-3.46h-.7l.7,4.9v14h-10.5V189.57h9.8Zm8.33,4.9a8.68,8.68,0,0,0-3.18.59,8,8,0,0,0-2.66,1.72,8.12,8.12,0,0,0-1.82,2.66,8.6,8.6,0,0,0-.67,3.5,8.85,8.85,0,0,0,.67,3.53,7.63,7.63,0,0,0,1.82,2.66,8,8,0,0,0,2.66,1.68,8.48,8.48,0,0,0,3.18.6,8.57,8.57,0,0,0,3.19-.6,8.12,8.12,0,0,0,2.66-1.68,7.77,7.77,0,0,0,1.82-2.66,9,9,0,0,0,.66-3.53,8.77,8.77,0,0,0-.66-3.5,8.28,8.28,0,0,0-1.82-2.66,8.06,8.06,0,0,0-2.66-1.72A8.77,8.77,0,0,0,312.81,198.25Z"/><path d="M370.7,215.54a19.06,19.06,0,0,1-6.61,6.93,18.57,18.57,0,0,1-9.91,2.52,19.58,19.58,0,0,1-7.38-1.37,18,18,0,0,1-5.92-3.81A17.36,17.36,0,0,1,337,214a18.68,18.68,0,0,1-1.4-7.31,18.11,18.11,0,0,1,5.29-12.85,19,19,0,0,1,5.81-4,17.68,17.68,0,0,1,7.24-1.47,18.8,18.8,0,0,1,7.53,1.4,15.25,15.25,0,0,1,5.42,3.81,16.32,16.32,0,0,1,3.29,5.67,21.18,21.18,0,0,1,1.12,7c0,.37,0,.75,0,1.12s-.06.7-.11,1a6,6,0,0,0-.07.91H345.78a7.51,7.51,0,0,0,3.15,4.9,9.57,9.57,0,0,0,5.32,1.54,8.75,8.75,0,0,0,4.87-1.26,9.45,9.45,0,0,0,3-3.22Zm-9.31-13.37a5.86,5.86,0,0,0-.66-1.82,6.3,6.3,0,0,0-1.47-1.79,8.05,8.05,0,0,0-2.31-1.33,8.45,8.45,0,0,0-3.05-.52,8,8,0,0,0-7.63,5.46Zm-12.18-19.46,2.59-9.8h12.53l-6.86,9.8Z"/><path d="M377.14,189.57h9.8v4.34h.7a12,12,0,0,1,4-3.85,10.69,10.69,0,0,1,5.74-1.61,10.45,10.45,0,0,1,3.29.46,11,11,0,0,1,2.31,1l-2.73,9.36a9.4,9.4,0,0,0-1.92-.77,10.06,10.06,0,0,0-2.63-.28,7,7,0,0,0-6,2.73,11.51,11.51,0,0,0-2.07,7.14v15.75h-10.5Z"/><path d="M438.25,215.54a19.09,19.09,0,0,1-6.62,6.93,18.53,18.53,0,0,1-9.9,2.52,19.67,19.67,0,0,1-7.39-1.37,18.1,18.1,0,0,1-5.91-3.81,17.36,17.36,0,0,1-3.92-5.78,18.68,18.68,0,0,1-1.4-7.31,18.16,18.16,0,0,1,5.28-12.85,19.22,19.22,0,0,1,5.81-4,17.76,17.76,0,0,1,7.25-1.47,18.75,18.75,0,0,1,7.52,1.4,15.29,15.29,0,0,1,5.43,3.81,16.32,16.32,0,0,1,3.29,5.67,21.18,21.18,0,0,1,1.12,7c0,.37,0,.75,0,1.12a8.27,8.27,0,0,1-.1,1,6,6,0,0,0-.07.91H413.33a7.51,7.51,0,0,0,3.15,4.9,9.57,9.57,0,0,0,5.32,1.54,8.69,8.69,0,0,0,4.86-1.26,9.39,9.39,0,0,0,3-3.22Zm-9.31-13.37a5.9,5.9,0,0,0-.67-1.82,6.3,6.3,0,0,0-1.47-1.79,8.05,8.05,0,0,0-2.31-1.33,8.4,8.4,0,0,0-3-.52,8,8,0,0,0-7.63,5.46Z"/><path d="M442.66,215.47l16.45-17.22H443.22v-8.68h28.84V198l-16.45,17.22h16.73v8.68H442.66Z"/><path d="M0,0V242.11H242.13V0ZM174.44,181.59A80.71,80.71,0,0,1,40.36,121.05H80.71a40.36,40.36,0,1,0,80.71,0h40.36A80.53,80.53,0,0,1,174.44,181.59ZM181.6,80.7a20.18,20.18,0,1,1,20.18-20.18A20.17,20.17,0,0,1,181.6,80.7Z"/></g></g></svg>