<?xml version="1.0" encoding="utf-8"?>
<!-- Generator: Adobe Illustrator 25.2.1, SVG Export Plug-In . SVG Version: 6.00 Build 0)  -->
<svg version="1.2" baseProfile="tiny-ps" id="Layer_1" xmlns="http://www.w3.org/2000/svg" xmlns:xlink="http://www.w3.org/1999/xlink"
	 viewBox="0 0 39 39" overflow="visible" xml:space="preserve">
	 <title>Juan David Perez</title>
<path d="M0,0v39h39V0H0z M28.1,29.3c-2.3,2-5.3,3.3-8.6,3.3c-3.3,0-6.3-1.2-8.6-3.3c-2.7-2.4-4.4-5.9-4.4-9.7H13
	c0,3.6,2.9,6.5,6.5,6.5c3.6,0,6.5-2.9,6.5-6.5h6.5C32.5,23.4,30.8,26.9,28.1,29.3z M29.3,13c-1.8,0-3.3-1.4-3.3-3.3
	c0-1.8,1.4-3.3,3.3-3.3c1.8,0,3.3,1.4,3.3,3.3C32.5,11.6,31,13,29.3,13z"/>
</svg>
